<svg width="672" height="786" viewBox="0 0 672 786" fill="none" xmlns="http://www.w3.org/2000/svg">
<path d="M426.797 748.42C433.204 748.42 438.413 753.633 438.413 760.043C438.413 766.453 433.204 771.666 426.797 771.666C420.391 771.666 415.181 766.453 415.181 760.043C415.181 753.633 420.391 748.42 426.797 748.42ZM426.797 747.642C419.955 747.642 414.404 753.197 414.404 760.043C414.404 766.889 419.955 772.444 426.797 772.444C433.639 772.444 439.191 766.889 439.191 760.043C439.191 753.197 433.639 747.642 426.797 747.642Z" fill="#1D1D1B"/>
<path d="M486.238 711.849L336 798.638L185.77 711.849V740.897L336 827.679L486.238 740.897V711.849Z" fill="white" fill-opacity="0.2"/>
<path d="M336 310.974C374.487 310.974 405.797 342.302 405.797 380.811C405.797 419.32 374.487 450.649 336 450.649C297.513 450.649 266.211 419.32 266.211 380.811C266.211 342.302 297.521 310.974 336 310.974ZM336 287.635C284.576 287.635 242.886 329.349 242.886 380.811C242.886 432.273 284.576 473.987 336 473.987C387.424 473.987 429.122 432.273 429.122 380.811C429.122 329.349 387.432 287.635 336 287.635Z" fill="white" fill-opacity="0.2"/>
<path d="M299.869 40.4228V242.249C237.637 258.329 192.939 314.607 192.939 380.803C192.939 447 237.645 503.285 299.869 519.358V721.184L23.3252 561.438V200.177L299.869 40.4228ZM323.194 0L0 186.703V574.912L323.194 761.615V499.932C263.085 493.538 216.264 442.643 216.264 380.803C216.264 318.963 263.093 268.069 323.194 261.674V0Z" fill="white" fill-opacity="0.2"/>
<path d="M372.131 40.4228L648.675 200.177V561.438L372.131 721.192V519.366C434.363 503.285 479.069 447.008 479.069 380.811C479.069 314.615 434.363 258.329 372.131 242.257V40.4228ZM348.806 0V261.682C408.915 268.077 455.744 318.971 455.744 380.811C455.744 442.651 408.915 493.545 348.806 499.94V761.622L672 574.92V186.702L348.806 0Z" fill="white" fill-opacity="0.2"/>
</svg>
